<svg xmlns="http://www.w3.org/2000/svg" fill="none" viewBox="0 0 3174.539 1849.143"><path fill="#34a853" d="M3165.673 1779.102c-1.038-6.5-2.029-12.923-3.113-19.346-6.556-39.857-14.715-79.247-24.194-118.1-16.649-67.87-37.589-134.114-62.585-198.27-21.129-54.33-45.181-107.185-71.875-158.417-34.334-65.782-73.055-128.933-115.83-188.989a1596.945 1596.945 0 0 0-174.973-206.085c-26.835-26.703-54.613-52.473-83.288-77.162-62.113-53.628-128.47-102.46-198.365-146.109.613-1.009 1.132-2.089 1.745-3.098 32.024-55.331 64.141-110.591 96.164-165.922 31.316-54.02 62.632-108.04 93.947-162.054a49201.86 49201.86 0 0 0 67.442-116.397 147.623 147.623 0 0 0 12.687-28.476c8.772-27.166 9.15-55.722 2.122-82.27-1.792-6.574-3.961-12.998-6.602-19.266a149.35 149.35 0 0 0-9.197-18.266c-11.98-20.12-29.099-37.612-50.605-50.383-19.006-11.295-40.277-18.03-62.066-19.964a148.35 148.35 0 0 0-27.495.231c-7.546.774-15.045 2.17-22.497 4.103-26.505 7.042-51.124 21.591-70.271 42.64-6.886 7.583-13.111 15.945-18.44 25.151a147405.911 147405.911 0 0 0-67.443 116.397l-93.947 162.054c-32.023 55.336-64.14 110.59-96.164 165.926-3.49 6.032-7.027 12.07-10.517 18.186-4.858-1.938-9.668-3.872-14.526-5.73-176.576-67.329-368.149-104.163-568.4-104.163-5.47 0-10.894 0-16.412.076-178.038 1.778-349.095 32.735-508.692 88.302-18.44 6.423-36.692 13.233-54.803 20.355-3.254-5.65-6.602-11.3-9.81-16.95-32.023-55.336-64.14-110.591-96.163-165.927-31.316-54.014-62.632-108.034-93.948-162.054a49338.068 49338.068 0 0 1-67.442-116.392 149.16 149.16 0 0 0-18.44-25.151c-19.148-21.053-43.767-35.603-70.272-42.644-7.452-1.934-14.95-3.325-22.543-4.099a147.807 147.807 0 0 0-27.449-.235c-21.789 1.858-43.059 8.592-62.113 19.968-21.506 12.767-38.484 30.26-50.557 50.379-3.49 5.88-6.603 11.998-9.197 18.266-2.641 6.268-4.905 12.691-6.603 19.27-7.027 26.543-6.65 55.1 2.075 82.265 3.207 9.753 7.358 19.27 12.687 28.482a49243.94 49243.94 0 0 1 67.442 116.391c31.363 54.02 62.679 108.04 93.994 162.055 32.024 55.335 64.094 110.59 96.117 165.926.236.462.566.929.802 1.391-64.613 40.168-126.065 84.666-184.075 133.342-34.758 29.18-68.243 59.745-100.314 91.707-63.904 63.537-122.433 132.493-174.972 206.09-42.823 60.056-81.59 123.126-115.83 188.988-26.694 51.233-50.747 104.087-71.875 158.418-24.996 64.155-45.936 130.4-62.585 198.27a1621.292 1621.292 0 0 0-24.194 118.1c-1.085 6.423-2.075 12.922-3.066 19.345-3.584 23.143-6.602 46.437-9.149 69.886h3174.539c-2.547-23.45-5.565-46.743-9.102-69.886z" style="stroke-width:4.71622"/><path fill="#202124" d="M2413.01 1410.09c63.528-42.285 72.771-140.119 20.61-218.507-52.114-78.393-145.873-107.658-209.353-65.372-63.528 42.29-72.772 140.12-20.61 218.508 52.114 78.393 145.873 107.662 209.353 65.371zM973.665 1344.992c52.161-78.393 42.918-176.222-20.61-218.507-63.528-42.29-157.239-13.022-209.4 65.367-52.115 78.393-42.87 176.221 20.61 218.507 63.527 42.29 157.286 13.021 209.4-65.367z" style="stroke-width:4.71622"/></svg>