<?xml version="1.0" encoding="UTF-8" standalone="no"?>
<!-- Created with Inkscape (http://www.inkscape.org/) -->

<svg
   xmlns:dc="http://purl.org/dc/elements/1.1/"
   xmlns:cc="http://creativecommons.org/ns#"
   xmlns:rdf="http://www.w3.org/1999/02/22-rdf-syntax-ns#"
   xmlns:svg="http://www.w3.org/2000/svg"
   xmlns="http://www.w3.org/2000/svg"
   xmlns:sodipodi="http://sodipodi.sourceforge.net/DTD/sodipodi-0.dtd"
   xmlns:inkscape="http://www.inkscape.org/namespaces/inkscape"
   width="845.12701"
   height="1000"
   id="svg4948"
   version="1.1"
   inkscape:version="0.92.3 (2405546, 2018-03-11)"
   sodipodi:docname="Android_robot.svg">
  <defs
     id="defs4950" />
  <sodipodi:namedview
     id="base"
     pagecolor="#ffffff"
     bordercolor="#666666"
     borderopacity="1.0"
     inkscape:pageopacity="0.0"
     inkscape:pageshadow="2"
     inkscape:zoom="0.5"
     inkscape:cx="575.82062"
     inkscape:cy="534.74002"
     inkscape:document-units="px"
     inkscape:current-layer="layer1"
     showgrid="false"
     inkscape:window-width="1360"
     inkscape:window-height="706"
     inkscape:window-x="-8"
     inkscape:window-y="-8"
     inkscape:window-maximized="1" />
  <metadata
     id="metadata4953">
    <rdf:RDF>
      <cc:Work
         rdf:about="">
        <dc:format>image/svg+xml</dc:format>
        <dc:type
           rdf:resource="http://purl.org/dc/dcmitype/StillImage" />
        <dc:title></dc:title>
      </cc:Work>
    </rdf:RDF>
  </metadata>
  <g
     inkscape:label="Layer 1"
     inkscape:groupmode="layer"
     id="layer1"
     transform="translate(0,-52.362142)">
    <path
       style="fill:#79c257;fill-opacity:1;stroke:none;stroke-width:2.99069023"
       d="M 61.854731,376.98148 C 27.408954,376.98148 0,404.39043 0,438.83622 v 257.64911 c 0,34.44578 27.408954,61.85474 61.854731,61.85474 34.445775,0 61.854729,-27.40896 61.854729,-61.85474 V 438.83622 c 0,-34.44579 -27.408954,-61.85474 -61.854729,-61.85474 z m 721.417559,0 c -34.44579,0 -61.85474,27.40895 -61.85474,61.85474 v 257.64911 c 0,34.44578 27.40895,61.85474 61.85474,61.85474 34.44578,0 61.85471,-27.40896 61.85471,-61.85474 V 438.83622 c 0,-34.44579 -27.40893,-61.85474 -61.85471,-61.85474 z"
       id="rect3981-7"
       inkscape:connector-curvature="0" />
    <path
       style="fill:#79c257;fill-opacity:1;stroke:none;stroke-width:2.99069023"
       d="m 319.50188,671.00384 c -34.4458,0 -61.85474,27.40896 -61.85474,61.85474 v 257.64917 c 0,34.44585 27.40894,61.85435 61.85474,61.85435 34.44578,0 61.85474,-27.4085 61.85474,-61.85435 V 732.85858 c 0,-34.44578 -27.40896,-61.85474 -61.85474,-61.85474 z m 206.1193,0 c -34.44579,0 -61.85474,27.40896 -61.85474,61.85474 v 257.64917 c 0,34.44585 27.40895,61.85435 61.85474,61.85435 34.44578,0 61.85471,-27.4085 61.85471,-61.85435 V 732.85858 c 0,-34.44578 -27.40893,-61.85474 -61.85471,-61.85474 z"
       id="c-4-0"
       inkscape:connector-curvature="0" />
    <path
       style="fill:#79c257;fill-opacity:1;stroke-width:2.99069023"
       d="m 251.30064,52.362529 c -1.46221,0.01495 -2.82472,0.392199 -4.16786,1.136672 -4.41071,2.444919 -5.86115,7.513362 -3.41006,11.935247 l 43.573,78.715592 C 203.46326,187.7704 146.8389,270.66656 146.72541,365.80407 H 698.39766 C 698.28432,270.66656 641.65981,187.7704 557.82732,144.15004 l 43.57305,-78.715592 c 2.45108,-4.421885 1.00062,-9.490328 -3.41008,-11.935247 -1.34315,-0.744473 -2.70565,-1.122735 -4.16785,-1.136672 -3.13021,-0.03021 -6.09727,1.533806 -7.7674,4.546747 L 541.91368,136.4774 c -36.10938,-16.01694 -76.61164,-25.00711 -119.35214,-25.00711 -42.74052,0 -83.24281,8.99017 -119.35217,25.00711 L 259.068,56.909276 c -1.67011,-3.012941 -4.6372,-4.576773 -7.76736,-4.546747 z M 146.72541,387.59056 v 399.82975 c 0,36.94385 29.7418,66.68564 66.68565,66.68564 H 631.712 c 36.94388,0 66.68566,-29.74179 66.68566,-66.68564 V 387.59056 Z"
       id="ellipse3033"
       inkscape:connector-curvature="0" />
    <path
       style="color:#000000;font-style:normal;font-variant:normal;font-weight:normal;font-stretch:normal;font-size:medium;line-height:normal;font-family:Sans;-inkscape-font-specification:Sans;text-indent:0;text-align:start;text-decoration:none;text-decoration-line:none;letter-spacing:normal;word-spacing:normal;text-transform:none;writing-mode:lr-tb;direction:ltr;baseline-shift:baseline;text-anchor:start;display:inline;overflow:visible;visibility:visible;fill:#ffffff;fill-opacity:1;fill-rule:nonzero;stroke:none;stroke-width:21.53297043;marker:none;enable-background:accumulate"
       d="m 295.25179,218.7925 c -12.59365,0 -23.01792,10.42426 -23.01792,23.01794 0,12.59365 10.42427,23.01791 23.01792,23.01791 12.59366,0 23.01792,-10.42426 23.01792,-23.01791 0,-12.59368 -10.42426,-23.01794 -23.01792,-23.01794 z m 254.61797,0 c -12.59365,0 -23.01794,10.42426 -23.01794,23.01794 0,12.59365 10.42429,23.01791 23.01794,23.01791 12.59361,0 23.0179,-10.42426 23.0179,-23.01791 0,-12.59368 -10.42429,-23.01794 -23.0179,-23.01794 z"
       id="circle3041"
       inkscape:connector-curvature="0" />
  </g>
</svg>
